# xmcd CD database file
#
# Track frame offsets:
#	150
#	12676
#	27846
#	40259
#	53522
#	66698
#	79232
#	92717
#	105401
#	117531
#	130017
#	142630
#	155360
#	168201
#	180654
#	194214
#
# Disc length: 2739 seconds
#
# Revision: 1
# Processed by: cddbd v1.5.2PL0 Copyright (c) Steve Scherf et al.
# Submitted via: CDex 1.51
#
DISCID=d70ab110
DTITLE=John lee Williamson - Blues Legends
DYEAR=2002
DGENRE=Blues
TTITLE0=I Have Got To Go
TTITLE1=Love Me Baby
TTITLE2=Check Up On My Baby Blues
TTITLE3=Stop Breaking Down
TTITLE4=Hoodoo Hoodoo
TTITLE5=Shake The boogie
TTITLE6=Better Cut That Out
TTITLE7=Black Gal Blues
TTITLE8=Bad Luck Blues
TTITLE9=Good Gal Blues
TTITLE10=Good Gravy
TTITLE11=Train Fare Blues
TTITLE12=Welfare Store Blues
TTITLE13=My Black Name Blues
TTITLE14=Skinny Woman
TTITLE15=Black Panther Blues
EXTD=YEAR: 2002
EXTT0=
EXTT1=
EXTT2=
EXTT3=
EXTT4=
EXTT5=
EXTT6=
EXTT7=
EXTT8=
EXTT9=
EXTT10=
EXTT11=
EXTT12=
EXTT13=
EXTT14=
EXTT15=
PLAYORDER=
